<svg xmlns="http://www.w3.org/2000/svg" width="840" height="1080" viewBox="0 0 840 1080" role="img" aria-labelledby="title desc">
  <title id="title">Synthetic invoice DEMO-2026-042</title>
  <desc id="desc">Lakeview Distributors demo invoice for Corner Basket. Twelve water bottles at 100 rupees, 24 biscuit packets at 40 rupees, and one carton of tea at 1200 rupees. Total 3360 rupees. Tax excluded. Synthetic sample, not a real invoice.</desc>
  <rect width="840" height="1080" rx="10" fill="#fffefa"/>
  <path d="M0 0h840v14H0z" fill="#174f46"/>
  <g font-family="Arial, Helvetica, sans-serif">
    <rect x="58" y="50" width="52" height="52" rx="13" fill="#174f46"/>
    <path d="M73 80l9 8 16-24" fill="none" stroke="#e8f3a6" stroke-width="5" stroke-linecap="round" stroke-linejoin="round"/>
    <text x="128" y="72" font-size="23" font-weight="700" fill="#163c35">LAKEVIEW</text>
    <text x="128" y="96" font-size="14" letter-spacing="3" fill="#61716a">DISTRIBUTORS</text>
    <text x="782" y="73" text-anchor="end" font-size="30" font-weight="700" fill="#172f2b">INVOICE</text>
    <text x="782" y="100" text-anchor="end" font-size="14" fill="#67746e">DEMO-2026-042</text>
    <path d="M58 133h724" stroke="#d7dfd4"/>
    <text x="58" y="166" font-size="11" font-weight="700" letter-spacing="1.8" fill="#78827a">BILL TO</text>
    <text x="58" y="195" font-size="23" font-weight="700" fill="#213c33">Corner Basket</text>
    <text x="58" y="221" font-size="14" fill="#69756c">Neighbourhood essentials shop</text>
    <text x="58" y="245" font-size="14" fill="#69756c">Demo address · Bengaluru</text>
    <text x="536" y="166" font-size="11" font-weight="700" letter-spacing="1.8" fill="#78827a">INVOICE DETAILS</text>
    <text x="536" y="196" font-size="14" fill="#69756c">Date issued</text>
    <text x="782" y="196" text-anchor="end" font-size="14" font-weight="700" fill="#213c33">20 Sep 2026</text>
    <text x="536" y="226" font-size="14" fill="#69756c">Currency</text>
    <text x="782" y="226" text-anchor="end" font-size="14" font-weight="700" fill="#213c33">INR</text>
    <rect x="58" y="280" width="724" height="58" rx="9" fill="#f3f4e9"/>
    <circle cx="79" cy="309" r="5" fill="#af7b23"/>
    <text x="95" y="305" font-size="13" font-weight="700" fill="#695227">SYNTHETIC DEMO DOCUMENT</text>
    <text x="95" y="325" font-size="12" fill="#806c45">Fictitious supplier, shop and transaction. For product demonstration only.</text>
    <rect x="58" y="352" width="724" height="40" rx="5" fill="#174f46"/>
    <g fill="#fffefa" font-size="11" font-weight="700" letter-spacing="0.5">
      <text x="76" y="378">ITEM / SKU</text><text x="465" y="378" text-anchor="end">QTY</text><text x="525" y="378">UNIT</text><text x="671" y="378" text-anchor="end">RATE (INR)</text><text x="763" y="378" text-anchor="end">AMOUNT</text>
    </g>
    <g fill="#213c33" font-size="15">
      <text x="76" y="421" font-weight="700">Clear Spring water · 1 L</text><text x="76" y="444" font-size="11" fill="#7b857c">BTL100</text>
      <text x="465" y="431" text-anchor="end">12</text><text x="525" y="431">unit</text><text x="671" y="431" text-anchor="end">100.00</text><text x="763" y="431" text-anchor="end" font-weight="700">1,200.00</text>
      <path d="M58 462h724" stroke="#e2e5da"/>
      <text x="76" y="491" font-weight="700">Golden oat biscuits · 150 g</text><text x="76" y="514" font-size="11" fill="#7b857c">BIS040</text>
      <text x="465" y="501" text-anchor="end">24</text><text x="525" y="501">unit</text><text x="671" y="501" text-anchor="end">40.00</text><text x="763" y="501" text-anchor="end" font-weight="700">960.00</text>
      <path d="M58 532h724" stroke="#e2e5da"/>
      <text x="76" y="561" font-weight="700">Everyday tea · 100 g</text><text x="76" y="584" font-size="11" fill="#7b857c">TEA120</text>
      <text x="465" y="571" text-anchor="end">1</text><text x="525" y="571">carton</text><text x="671" y="571" text-anchor="end">1,200.00</text><text x="763" y="571" text-anchor="end" font-weight="700">1,200.00</text>
      <path d="M58 602h724" stroke="#c4d0c3"/>
    </g>
    <text x="58" y="639" font-size="12" font-weight="700" fill="#566b59">Receiving note</text>
    <text x="58" y="663" font-size="12" fill="#738073">Please verify carton size before counting individual units.</text>
    <text x="536" y="641" font-size="14" fill="#687869">Subtotal</text><text x="763" y="641" text-anchor="end" font-size="15" fill="#213c33">3,360.00</text>
    <text x="536" y="675" font-size="14" fill="#687869">Taxes / discounts</text><text x="763" y="675" text-anchor="end" font-size="13" fill="#687869">Not modeled</text>
    <rect x="517" y="700" width="265" height="77" rx="9" fill="#e8edda"/>
    <text x="536" y="731" font-size="12" font-weight="700" fill="#426148">ITEM VALUE</text><text x="763" y="757" text-anchor="end" font-size="27" font-weight="700" fill="#173c30">INR 3,360.00</text>
    <path d="M58 856h724" stroke="#d7dfd4"/>
    <text x="58" y="890" font-size="12" font-weight="700" fill="#4c6554">Before accepting delivery</text>
    <text x="58" y="916" font-size="13" fill="#738073">Count received units, separate damaged or wrong items, and confirm billed pack sizes.</text>
    <text x="58" y="939" font-size="13" fill="#738073">The invoice states billed quantities. It does not independently verify what arrived.</text>
    <rect x="58" y="985" width="724" height="43" rx="6" fill="#f1f2e9"/>
    <text x="79" y="1012" font-size="11" letter-spacing="1" fill="#7b8477">RECEIVERIGHT / DEMO EVIDENCE</text><text x="763" y="1012" text-anchor="end" font-size="11" fill="#7b8477">1 / 1</text>
  </g>
</svg>
